<?xml version="1.0" encoding="utf-8"?>
<!-- Generator: Adobe Illustrator 16.0.3, SVG Export Plug-In . SVG Version: 6.00 Build 0)  -->
<!DOCTYPE svg PUBLIC "-//W3C//DTD SVG 1.1//EN" "http://www.w3.org/Graphics/SVG/1.1/DTD/svg11.dtd">
<svg version="1.1" id="Layer_1" xmlns="http://www.w3.org/2000/svg" xmlns:xlink="http://www.w3.org/1999/xlink" x="0px" y="0px"
	 width="201px" height="201px" viewBox="0 0 201 201" enable-background="new 0 0 201 201" xml:space="preserve">
<path d="M172.134,173.015H28.866v-3.477c0-31.75,20.269-59.381,49.376-68.972c-11.258-7.387-18.346-20.084-18.346-33.95
	c0-22.403,18.211-40.631,40.604-40.631s40.617,18.228,40.617,40.631c0,13.865-7.096,26.563-18.346,33.95
	c29.102,9.591,49.362,37.219,49.362,68.972V173.015z M35.9,166.062H165.1c-1.563-30.161-23.303-55.532-52.854-61.032l-11.746-2.186
	l-11.746,2.186C59.211,110.53,37.463,135.904,35.9,166.062z M100.5,32.938c-18.551,0-33.65,15.108-33.65,33.678
	c0,14.232,9.017,26.977,22.427,31.719l11.217,3.962l11.23-3.965c13.424-4.736,22.44-17.484,22.44-31.716
	C134.164,48.046,119.063,32.938,100.5,32.938z"/>
</svg>
