<?xml version="1.0" encoding="UTF-8" standalone="no"?>
<!-- Generator: Adobe Illustrator 16.0.3, SVG Export Plug-In . SVG Version: 6.00 Build 0)  -->

<svg
   xmlns:dc="http://purl.org/dc/elements/1.1/"
   xmlns:cc="http://creativecommons.org/ns#"
   xmlns:rdf="http://www.w3.org/1999/02/22-rdf-syntax-ns#"
   xmlns:svg="http://www.w3.org/2000/svg"
   xmlns="http://www.w3.org/2000/svg"
   xmlns:sodipodi="http://sodipodi.sourceforge.net/DTD/sodipodi-0.dtd"
   xmlns:inkscape="http://www.inkscape.org/namespaces/inkscape"
   version="1.1"
   id="Layer_1"
   x="0px"
   y="0px"
   width="201px"
   height="201px"
   viewBox="0 0 201 201"
   enable-background="new 0 0 201 201"
   xml:space="preserve"
   inkscape:version="0.48.4 r9939"
   sodipodi:docname="icons_comments.svg"><metadata
     id="metadata11"><rdf:RDF><cc:Work
         rdf:about=""><dc:format>image/svg+xml</dc:format><dc:type
           rdf:resource="http://purl.org/dc/dcmitype/StillImage" /></cc:Work></rdf:RDF></metadata><defs
     id="defs9" /><sodipodi:namedview
     pagecolor="#ffffff"
     bordercolor="#666666"
     borderopacity="1"
     objecttolerance="10"
     gridtolerance="10"
     guidetolerance="10"
     inkscape:pageopacity="0"
     inkscape:pageshadow="2"
     inkscape:window-width="640"
     inkscape:window-height="480"
     id="namedview7"
     showgrid="false"
     inkscape:zoom="1.1741294"
     inkscape:cx="100.5"
     inkscape:cy="100.5"
     inkscape:window-x="0"
     inkscape:window-y="0"
     inkscape:window-maximized="0"
     inkscape:current-layer="Layer_1" /><g
     id="g3"
     transform="translate(0,-16)"><path
       d="m 127.058,173.075 0.111,-6.416 c 0.329,-18.285 -7.503,-28.364 -11.091,-32.004 h -87.57 c -10.756,0 -19.501,-8.749 -19.501,-19.501 V 47.426 c 0,-10.752 8.745,-19.501 19.501,-19.501 h 143.971 c 10.763,0 19.515,8.749 19.515,19.501 v 67.728 c 0,10.752 -8.752,19.501 -19.515,19.501 h -14.986 c -1.945,7.53 -7.925,23.427 -25.093,34.863 l -5.342,3.557 z M 28.508,34.653 c -7.044,0 -12.772,5.729 -12.772,12.772 v 67.728 c 0,7.043 5.729,12.773 12.772,12.773 h 90.225 l 0.966,0.877 c 3.082,2.806 12.419,12.757 13.982,31.345 13.759,-11.637 17.228,-26.384 17.819,-29.488 l 0.525,-2.733 h 20.453 c 7.051,0 12.786,-5.729 12.786,-12.773 V 47.426 c 0,-7.043 -5.735,-12.772 -12.786,-12.772 H 28.508 z"
       id="path5"
       inkscape:connector-curvature="0" /></g></svg>