<?xml version="1.0" encoding="UTF-8" standalone="no"?>
<!-- Generator: Adobe Illustrator 16.0.3, SVG Export Plug-In . SVG Version: 6.00 Build 0)  -->

<svg
   xmlns:dc="http://purl.org/dc/elements/1.1/"
   xmlns:cc="http://creativecommons.org/ns#"
   xmlns:rdf="http://www.w3.org/1999/02/22-rdf-syntax-ns#"
   xmlns:svg="http://www.w3.org/2000/svg"
   xmlns="http://www.w3.org/2000/svg"
   xmlns:sodipodi="http://sodipodi.sourceforge.net/DTD/sodipodi-0.dtd"
   xmlns:inkscape="http://www.inkscape.org/namespaces/inkscape"
   version="1.1"
   id="Layer_1"
   x="0px"
   y="0px"
   width="201px"
   height="201px"
   viewBox="0 0 201 201"
   enable-background="new 0 0 201 201"
   xml:space="preserve"
   inkscape:version="0.48.4 r9939"
   sodipodi:docname="icons_date.svg"><metadata
     id="metadata9"><rdf:RDF><cc:Work
         rdf:about=""><dc:format>image/svg+xml</dc:format><dc:type
           rdf:resource="http://purl.org/dc/dcmitype/StillImage" /><dc:title></dc:title></cc:Work></rdf:RDF></metadata><defs
     id="defs7" /><sodipodi:namedview
     pagecolor="#ffffff"
     bordercolor="#666666"
     borderopacity="1"
     objecttolerance="10"
     gridtolerance="10"
     guidetolerance="10"
     inkscape:pageopacity="0"
     inkscape:pageshadow="2"
     inkscape:window-width="1920"
     inkscape:window-height="1151"
     id="namedview5"
     showgrid="false"
     inkscape:zoom="2.3482587"
     inkscape:cx="36.275999"
     inkscape:cy="93.113208"
     inkscape:window-x="0"
     inkscape:window-y="0"
     inkscape:window-maximized="1"
     inkscape:current-layer="Layer_1" /><g
     id="g5526"
     transform="translate(206.54687,-17.033898)"><path
       style="font-size:medium;font-style:normal;font-variant:normal;font-weight:normal;font-stretch:normal;text-indent:0;text-align:start;text-decoration:none;line-height:normal;letter-spacing:normal;word-spacing:normal;text-transform:none;direction:ltr;block-progression:tb;writing-mode:lr-tb;text-anchor:start;baseline-shift:baseline;color:#000000;fill:#000000;fill-opacity:1;stroke:none;stroke-width:6.95329952;marker:none;visibility:visible;display:inline;overflow:visible;enable-background:accumulate;font-family:Sans;-inkscape-font-specification:Sans"
       d="m -127.71875,24.96875 0,3.46875 0,46.34375 -46.34375,0 -3.46875,0 0,3.46875 0,36.40625 0,3.46875 3.46875,0 46.34375,0 0,46.34375 0,3.46875 3.46875,0 36.40625,0 3.46875,0 0,-3.46875 0,-46.34375 46.34375,0 3.46875,0 0,-3.46875 0,-36.40625 0,-3.46875 -3.46875,0 -46.34375,0 0,-46.34375 0,-3.46875 -3.46875,0 -36.40625,0 -3.46875,0 z m 6.9375,6.9375 29.46875,0 0,46.34375 0,3.46875 3.46875,0 46.34375,0 0,29.46875 -46.34375,0 -3.46875,0 0,3.46875 0,46.34375 -29.46875,0 0,-46.34375 0,-3.46875 -3.46875,0 -46.34375,0 0,-29.46875 46.34375,0 3.46875,0 0,-3.46875 0,-46.34375 z"
       id="rect4998"
       inkscape:connector-curvature="0" /></g></svg>