<?xml version="1.0" encoding="UTF-8" standalone="no"?>
<!-- Generator: Adobe Illustrator 16.0.3, SVG Export Plug-In . SVG Version: 6.00 Build 0)  -->

<svg
   xmlns:dc="http://purl.org/dc/elements/1.1/"
   xmlns:cc="http://creativecommons.org/ns#"
   xmlns:rdf="http://www.w3.org/1999/02/22-rdf-syntax-ns#"
   xmlns:svg="http://www.w3.org/2000/svg"
   xmlns="http://www.w3.org/2000/svg"
   xmlns:sodipodi="http://sodipodi.sourceforge.net/DTD/sodipodi-0.dtd"
   xmlns:inkscape="http://www.inkscape.org/namespaces/inkscape"
   version="1.1"
   id="Layer_1"
   x="0px"
   y="0px"
   width="201px"
   height="201px"
   viewBox="0 0 201 201"
   enable-background="new 0 0 201 201"
   xml:space="preserve"
   inkscape:version="0.48.4 r9939"
   sodipodi:docname="icons_user.svg"><metadata
     id="metadata9"><rdf:RDF><cc:Work
         rdf:about=""><dc:format>image/svg+xml</dc:format><dc:type
           rdf:resource="http://purl.org/dc/dcmitype/StillImage" /></cc:Work></rdf:RDF></metadata><defs
     id="defs7" /><sodipodi:namedview
     pagecolor="#ffffff"
     bordercolor="#666666"
     borderopacity="1"
     objecttolerance="10"
     gridtolerance="10"
     guidetolerance="10"
     inkscape:pageopacity="0"
     inkscape:pageshadow="2"
     inkscape:window-width="640"
     inkscape:window-height="480"
     id="namedview5"
     showgrid="false"
     inkscape:zoom="1.1741294"
     inkscape:cx="100.5"
     inkscape:cy="100.5"
     inkscape:window-x="0"
     inkscape:window-y="0"
     inkscape:window-maximized="0"
     inkscape:current-layer="Layer_1" /><path
     d="M 175.54078,160.51124 H 25.45922 v -3.64236 c 0,-33.25998 21.232956,-62.20505 51.724231,-72.252183 C 65.390041,76.878385 57.96495,63.57754 57.96495,49.052099 57.96495,25.583654 77.04203,6.488764 100.5,6.488764 c 23.45797,0 42.54867,19.09489 42.54867,42.563335 0,14.524393 -7.43347,27.826286 -19.2185,35.564598 30.48604,10.047133 51.70957,38.989063 51.70957,72.252183 v 3.64236 z M 32.827744,153.22756 H 168.17226 C 166.53492,121.63216 143.76101,95.05457 112.80462,89.293 L 100.5,87.00303 88.195382,89.293 c -30.94801,5.76157 -53.730305,32.34231 -55.367638,63.93456 z M 100.5,13.772436 c -19.433251,0 -35.250332,15.826508 -35.250332,35.279663 0,14.908847 9.445832,28.259975 23.493587,33.227496 l 11.750465,4.150425 11.76407,-4.153567 c 14.06242,-4.961236 23.5072,-18.315507 23.5072,-33.224354 0,-19.453155 -15.81917,-35.279663 -35.26499,-35.279663 z"
     id="path3"
     inkscape:connector-curvature="0" /></svg>